<svg width="276" height="286" viewBox="0 0 276 286" fill="none" xmlns="http://www.w3.org/2000/svg">
<path d="M141 108C141 106.343 139.657 105 138 105C136.343 105 135 106.343 135 108L141 108ZM135.879 190.121C137.05 191.293 138.95 191.293 140.121 190.121L159.213 171.029C160.385 169.858 160.385 167.958 159.213 166.787C158.042 165.615 156.142 165.615 154.971 166.787L138 183.757L121.029 166.787C119.858 165.615 117.958 165.615 116.787 166.787C115.615 167.958 115.615 169.858 116.787 171.029L135.879 190.121ZM135 108L135 188L141 188L141 108L135 108Z" fill="#EC8487"/>
</svg>
