<svg width="300" height="300" viewBox="0 0 300 300" fill="none" xmlns="http://www.w3.org/2000/svg">
<path d="M150.371 48.5316C155.201 48.5316 156.881 46.4916 156.881 43.4616C156.881 41.0616 155.561 39.4416 150.581 38.3916C146.411 37.5216 145.301 36.3516 145.301 34.4916C145.301 32.5416 146.591 31.2816 150.011 31.2816C153.161 31.2816 154.181 32.4816 154.871 35.0316L156.491 34.6716C155.711 31.5516 154.091 29.8716 150.071 29.8716C145.631 29.8716 143.711 31.7916 143.711 34.6116C143.711 37.1616 145.271 38.9316 150.101 39.8616C153.881 40.6116 155.231 41.5716 155.231 43.6416C155.231 45.6816 154.001 47.0916 150.371 47.0916C146.681 47.0916 145.121 45.6516 144.551 42.5316L142.961 42.8916C143.591 46.5216 145.721 48.5316 150.371 48.5316Z" fill="#EC8487"/>
<path d="M167.667 50.0815C172.306 50.8994 174.937 49.1091 176.307 45.482L174.833 44.8566C173.412 48.0787 171.586 49.2798 167.982 48.6443C163.58 47.8681 162.286 44.8374 163.172 39.8149C164.042 34.881 166.245 32.406 170.795 33.2083C174.015 33.7761 175.484 35.4668 175.674 38.8817L177.273 38.7981C177.239 35.0148 175.251 32.4708 171.026 31.7259C165.796 30.8038 162.544 33.703 161.517 39.5232C160.491 45.3434 162.29 49.1334 167.667 50.0815Z" fill="#EC8487"/>
<path d="M191.357 39.0984C194.938 40.4015 195.657 41.8447 194.785 44.241C193.862 46.7781 191.673 47.3542 188.797 46.3076L184.456 44.7275L187.072 37.5388L191.357 39.0984ZM188.333 47.671L188.53 47.7428L191.219 56.6708L192.798 57.2454L193.003 56.6816L190.132 48.1662C193.22 48.7156 195.399 47.4655 196.364 44.8156C197.482 41.7428 196.389 39.3972 192.047 37.8171L185.986 35.6111L179.83 52.5255L181.408 53.1001L183.963 46.0806L188.333 47.671Z" fill="#EC8487"/>
<path d="M201.354 62.4841C206.369 65.3791 210.593 63.5225 213.413 58.6381C216.233 53.7537 215.647 49.189 210.684 46.324C205.722 43.459 201.476 45.2337 198.656 50.1181C195.836 55.0025 196.34 59.5891 201.354 62.4841ZM202.089 61.211C197.803 58.736 197.741 55.063 200.111 50.9581C202.496 46.8271 205.7 45.1781 209.934 47.6231C214.169 50.0681 214.343 53.6671 211.958 57.7981C209.588 61.903 206.376 63.686 202.089 61.211Z" fill="#EC8487"/>
<path d="M225.595 57.0461L224.308 55.9663L212.738 69.7551L220.828 76.5429L221.772 75.4168L214.97 69.7089L225.595 57.0461Z" fill="#EC8487"/>
<path d="M240.588 71.5853L239.508 70.2983L225.719 81.8685L232.507 89.9579L233.633 89.013L227.925 82.2105L240.588 71.5853Z" fill="#EC8487"/>
<path d="M253.954 110.78L250.261 112.124L251.625 115.874L255.318 114.53L253.954 110.78Z" fill="#EC8487"/>
<path d="M251.468 150.37C251.468 155.2 253.508 156.88 256.538 156.88C258.938 156.88 260.558 155.56 261.608 150.58C262.478 146.41 263.648 145.3 265.508 145.3C267.458 145.3 268.718 146.59 268.718 150.01C268.718 153.16 267.518 154.18 264.968 154.87L265.328 156.49C268.448 155.71 270.128 154.09 270.128 150.07C270.128 145.63 268.208 143.71 265.388 143.71C262.838 143.71 261.068 145.27 260.138 150.1C259.388 153.88 258.428 155.23 256.358 155.23C254.318 155.23 252.908 154 252.908 150.37C252.908 146.68 254.348 145.12 257.468 144.55L257.108 142.96C253.478 143.59 251.468 145.72 251.468 150.37Z" fill="#EC8487"/>
<path d="M249.918 167.667C249.101 172.306 250.891 174.937 254.518 176.307L255.143 174.834C251.921 173.412 250.72 171.586 251.356 167.982C252.132 163.58 255.163 162.286 260.185 163.172C265.119 164.042 267.594 166.245 266.792 170.795C266.224 174.015 264.533 175.484 261.118 175.674L261.202 177.273C264.985 177.239 267.529 175.251 268.274 171.026C269.196 165.797 266.297 162.544 260.477 161.517C254.657 160.491 250.867 162.29 249.918 167.667Z" fill="#EC8487"/>
<path d="M260.901 191.357C259.598 194.938 258.155 195.657 255.759 194.785C253.222 193.862 252.646 191.673 253.692 188.797L255.272 184.456L262.461 187.072L260.901 191.357ZM252.329 188.333L252.257 188.53L243.329 191.219L242.754 192.798L243.318 193.003L251.834 190.132C251.284 193.22 252.534 195.399 255.184 196.364C258.257 197.482 260.603 196.389 262.183 192.047L264.389 185.986L247.474 179.83L246.9 181.408L253.919 183.963L252.329 188.333Z" fill="#EC8487"/>
<path d="M237.516 201.355C234.621 206.369 236.477 210.593 241.362 213.413C246.246 216.233 250.811 215.647 253.676 210.685C256.541 205.722 254.766 201.476 249.882 198.656C244.997 195.836 240.411 196.34 237.516 201.355ZM238.789 202.09C241.264 197.803 244.937 197.741 249.042 200.111C253.173 202.496 254.822 205.7 252.377 209.935C249.932 214.17 246.333 214.343 242.202 211.958C238.097 209.588 236.314 206.376 238.789 202.09Z" fill="#EC8487"/>
<path d="M242.954 225.595L244.034 224.308L230.245 212.738L223.457 220.827L224.583 221.772L230.291 214.97L242.954 225.595Z" fill="#EC8487"/>
<path d="M228.414 240.588L229.701 239.508L218.131 225.719L210.042 232.507L210.987 233.633L217.789 227.925L228.414 240.588Z" fill="#EC8487"/>
<path d="M189.219 253.954L187.875 250.261L184.126 251.625L185.47 255.318L189.219 253.954Z" fill="#EC8487"/>
<path d="M149.629 251.468C144.799 251.468 143.119 253.508 143.119 256.538C143.119 258.938 144.439 260.558 149.419 261.608C153.589 262.478 154.699 263.648 154.699 265.508C154.699 267.458 153.409 268.718 149.989 268.718C146.839 268.718 145.819 267.518 145.129 264.968L143.509 265.328C144.289 268.448 145.909 270.128 149.929 270.128C154.369 270.128 156.289 268.208 156.289 265.388C156.289 262.838 154.729 261.068 149.899 260.138C146.119 259.388 144.769 258.428 144.769 256.358C144.769 254.318 145.999 252.908 149.629 252.908C153.319 252.908 154.879 254.348 155.449 257.468L157.039 257.108C156.409 253.478 154.279 251.468 149.629 251.468Z" fill="#EC8487"/>
<path d="M132.332 249.918C127.694 249.1 125.063 250.891 123.693 254.518L125.166 255.143C126.587 251.921 128.414 250.72 132.018 251.355C136.42 252.132 137.714 255.162 136.828 260.185C135.958 265.119 133.755 267.594 129.205 266.791C125.985 266.224 124.516 264.533 124.326 261.118L122.727 261.202C122.761 264.985 124.749 267.529 128.974 268.274C134.203 269.196 137.456 266.297 138.482 260.477C139.509 254.656 137.71 250.866 132.332 249.918Z" fill="#EC8487"/>
<path d="M108.642 260.901C105.062 259.598 104.342 258.155 105.214 255.759C106.138 253.222 108.327 252.646 111.202 253.692L115.544 255.272L112.927 262.461L108.642 260.901ZM111.667 252.329L111.469 252.257L108.781 243.329L107.202 242.754L106.997 243.318L109.867 251.834C106.779 251.284 104.6 252.534 103.636 255.184C102.517 258.257 103.611 260.603 107.952 262.183L114.013 264.389L120.17 247.474L118.591 246.9L116.036 253.919L111.667 252.329Z" fill="#EC8487"/>
<path d="M98.6453 237.516C93.631 234.621 89.4068 236.477 86.5868 241.362C83.7668 246.246 84.353 250.811 89.3153 253.676C94.2776 256.541 98.5238 254.766 101.344 249.882C104.164 244.997 103.66 240.411 98.6453 237.516ZM97.9103 238.789C102.197 241.264 102.259 244.937 99.8889 249.042C97.5039 253.173 94.3002 254.822 90.0653 252.377C85.8304 249.932 85.6567 246.333 88.0417 242.202C90.4117 238.097 93.6235 236.314 97.9103 238.789Z" fill="#EC8487"/>
<path d="M74.4047 242.954L75.6917 244.033L87.2619 230.245L79.1724 223.457L78.2275 224.583L85.03 230.291L74.4047 242.954Z" fill="#EC8487"/>
<path d="M59.4119 228.414L60.4918 229.701L74.2806 218.131L67.4928 210.042L66.3667 210.987L72.0747 217.789L59.4119 228.414Z" fill="#EC8487"/>
<path d="M46.0462 189.219L49.7392 187.875L48.3746 184.126L44.6816 185.47L46.0462 189.219Z" fill="#EC8487"/>
<path d="M48.5317 149.629C48.5317 144.799 46.4917 143.119 43.4617 143.119C41.0617 143.119 39.4417 144.439 38.3917 149.419C37.5217 153.589 36.3517 154.699 34.4917 154.699C32.5417 154.699 31.2817 153.409 31.2817 149.989C31.2817 146.839 32.4817 145.819 35.0317 145.129L34.6717 143.509C31.5517 144.289 29.8717 145.909 29.8717 149.929C29.8717 154.369 31.7917 156.289 34.6117 156.289C37.1617 156.289 38.9317 154.729 39.8617 149.899C40.6117 146.119 41.5717 144.769 43.6417 144.769C45.6817 144.769 47.0917 145.999 47.0917 149.629C47.0917 153.319 45.6517 154.879 42.5317 155.449L42.8917 157.039C46.5217 156.409 48.5317 154.279 48.5317 149.629Z" fill="#EC8487"/>
<path d="M50.0815 132.332C50.8994 127.694 49.1091 125.063 45.482 123.692L44.8566 125.166C48.0787 126.587 49.2798 128.413 48.6443 132.018C47.8681 136.42 44.8374 137.713 39.8149 136.828C34.881 135.958 32.406 133.755 33.2083 129.205C33.7761 125.984 35.4668 124.516 38.8817 124.326L38.7981 122.727C35.0148 122.76 32.4708 124.749 31.7259 128.974C30.8038 134.203 33.703 137.456 39.5232 138.482C45.3434 139.508 49.1334 137.709 50.0815 132.332Z" fill="#EC8487"/>
<path d="M39.0987 108.643C40.4018 105.062 41.845 104.342 44.2412 105.215C46.7784 106.138 47.3544 108.327 46.3078 111.203L44.7277 115.544L37.5391 112.928L39.0987 108.643ZM47.6713 111.667L47.7431 111.47L56.6711 108.781L57.2456 107.202L56.6818 106.997L48.1665 109.868C48.7159 106.779 47.4657 104.6 44.8158 103.636C41.743 102.518 39.3975 103.611 37.8173 107.953L35.6113 114.014L52.5258 120.17L53.1004 118.591L46.0809 116.036L47.6713 111.667Z" fill="#EC8487"/>
<path d="M62.4843 98.6451C65.3793 93.6308 63.5226 89.4065 58.6383 86.5865C53.7539 83.7665 49.1892 84.3527 46.3242 89.3151C43.4592 94.2774 45.2339 98.5236 50.1183 101.344C55.0026 104.164 59.5893 103.659 62.4843 98.6451ZM61.2112 97.9101C58.7362 102.197 55.0632 102.259 50.9583 99.8887C46.8273 97.5037 45.1783 94.2999 47.6233 90.0651C50.0683 85.8302 53.6673 85.6564 57.7983 88.0414C61.9032 90.4114 63.6862 93.6232 61.2112 97.9101Z" fill="#EC8487"/>
<path d="M57.0461 74.4046L55.9662 75.6916L69.755 87.2617L76.5428 79.1723L75.4168 78.2274L69.7088 85.0299L57.0461 74.4046Z" fill="#EC8487"/>
<path d="M71.5851 59.4119L70.2982 60.4918L81.8684 74.2806L89.9578 67.4927L89.0129 66.3666L82.2104 72.0746L71.5851 59.4119Z" fill="#EC8487"/>
<path d="M110.781 46.0462L112.125 49.7392L115.874 48.3746L114.53 44.6816L110.781 46.0462Z" fill="#EC8487"/>
<circle cx="150" cy="150" r="87" stroke="#EC8487" strokeWidth="2"/>
<circle cx="150" cy="150" r="137" stroke="#EC8487" strokeWidth="2"/>
<path d="M153 110C153 108.343 151.657 107 150 107C148.343 107 147 108.343 147 110L153 110ZM147.879 192.121C149.05 193.293 150.95 193.293 152.121 192.121L171.213 173.029C172.385 171.858 172.385 169.958 171.213 168.787C170.042 167.615 168.142 167.615 166.971 168.787L150 185.757L133.029 168.787C131.858 167.615 129.958 167.615 128.787 168.787C127.615 169.958 127.615 171.858 128.787 173.029L147.879 192.121ZM147 110L147 190L153 190L153 110L147 110Z" fill="#EC8487"/>
</svg>
