<svg width="212" height="212" viewBox="0 0 212 212" fill="none" xmlns="http://www.w3.org/2000/svg">
<path d="M103.015 3.48498C103.379 -0.112159 108.621 -0.11213 108.985 3.48501L117.887 91.43C118.031 92.8479 119.152 93.9691 120.57 94.1126L208.515 103.015C212.112 103.379 212.112 108.621 208.515 108.985L120.57 117.887C119.152 118.031 118.031 119.152 117.887 120.57L108.985 208.515C108.621 212.112 103.379 212.112 103.015 208.515L94.1126 120.57C93.9691 119.152 92.8479 118.031 91.43 117.887L3.48498 108.985C-0.112159 108.621 -0.11213 103.379 3.48501 103.015L91.43 94.1126C92.8479 93.9691 93.9691 92.8479 94.1126 91.43L103.015 3.48498Z" fill="#CF523E"/>
</svg>
